HIERARCHY
ROOT Reference
{
  OFFSET 0 0 0
  CHANNELS 6 Xposition Yposition Zposition Zrotation Xrotation Yrotation
  JOINT Hips
  {
    OFFSET 251.394 724.17 483.536
    CHANNELS 3 Zrotation Xrotation Yrotation
    JOINT RightUpLeg
    {
      OFFSET -0.450515 -23.4426 -1.37224
      CHANNELS 3 Zrotation Xrotation Yrotation
      JOINT RightLeg
      {
        OFFSET 112.821 0.0872427 -0.321027
        CHANNELS 3 Zrotation Xrotation Yrotation
        JOINT RightFoot
        {
          OFFSET 105.718 0.000193788 0.0213165
          CHANNELS 3 Zrotation Xrotation Yrotation
          JOINT RightToeBase
          {
            OFFSET 37.638 -0.000116272 0.00224792
            CHANNELS 3 Zrotation Xrotation Yrotation
            JOINT RightToeEnd
            {
              OFFSET 21.2112 0.114605 -0.000138184
              CHANNELS 3 Zrotation Xrotation Yrotation
              End Site
              {
                OFFSET 0 0 0
              }
            }
          }
        }
      }
    }
    JOINT LeftUpLeg
    {
      OFFSET -0.449508 23.4315 -1.37054
      CHANNELS 3 Zrotation Xrotation Yrotation
      JOINT LeftLeg
      {
        OFFSET 112.821 -0.0485242 -0.372458
        CHANNELS 3 Zrotation Xrotation Yrotation
        JOINT LeftFoot
        {
          OFFSET 105.716 0.00496094 -0.0229443
          CHANNELS 3 Zrotation Xrotation Yrotation
          JOINT LeftToeBase
          {
            OFFSET 37.639 0 0.00158905
            CHANNELS 3 Zrotation Xrotation Yrotation
            JOINT LeftToeEnd
            {
              OFFSET 21.2113 -0.125031 -0.00017438
              CHANNELS 3 Zrotation Xrotation Yrotation
              End Site
              {
                OFFSET 0 0 0
              }
            }
          }
        }
      }
    }
    JOINT Spine
    {
      OFFSET -5.01225 0.000463591 -9.60395
      CHANNELS 3 Zrotation Xrotation Yrotation
      JOINT Spine1
      {
        OFFSET 26.0222 -0.000271301 -0.000155029
        CHANNELS 3 Zrotation Xrotation Yrotation
        JOINT Spine2
        {
          OFFSET 27.173 -0.000155029 -0.000310058
          CHANNELS 3 Zrotation Xrotation Yrotation
          JOINT Spine3
          {
            OFFSET 36.3953 -0.000232544 7.75146e-005
            CHANNELS 3 Zrotation Xrotation Yrotation
            JOINT Neck
            {
              OFFSET 36.4331 0 -3.00261
              CHANNELS 3 Zrotation Xrotation Yrotation
              JOINT Head
              {
                OFFSET 23.0407 -0.000232544 -0.000310058
                CHANNELS 3 Zrotation Xrotation Yrotation
                End Site
                {
                  OFFSET 0 0 0
                }
              }
            }
            JOINT LeftShoulder
            {
              OFFSET 20.1317 6.74168 -12.6061
              CHANNELS 3 Zrotation Xrotation Yrotation
              JOINT LeftArm
              {
                OFFSET 34.2172 -5.81359e-005 7.75146e-005
                CHANNELS 3 Zrotation Xrotation Yrotation
                JOINT LeftForeArm
                {
                  OFFSET 65.4129 -0.0821605 0.0585235
                  CHANNELS 3 Zrotation Xrotation Yrotation
                  JOINT LeftHand
                  {
                    OFFSET 67.3883 0.0359667 0.0112396
                    CHANNELS 3 Zrotation Xrotation Yrotation
                    JOINT LeftHandThumb1
                    {
                      OFFSET 8.78386 2.85353 -6.05362
                      CHANNELS 3 Zrotation Xrotation Yrotation
                      JOINT LeftHandThumb2
                      {
                        OFFSET 8.25498 -0.000116272 -0.000174407
                        CHANNELS 3 Zrotation Xrotation Yrotation
                        JOINT LeftHandThumb3
                        {
                          OFFSET 7.24822 0.000310058 5.81358e-005
                          CHANNELS 3 Zrotation Xrotation Yrotation
                          JOINT LeftHandThumb4
                          {
                            OFFSET 7.0004 -3.87568e-005 -0.000310057
                            CHANNELS 3 Zrotation Xrotation Yrotation
                            End Site
                            {
                              OFFSET 0 0 0
                            }
                          }
                        }
                      }
                    }
                    JOINT LeftHandIndex1
                    {
                      OFFSET 24.0991 -1.01537 -5.40558
                      CHANNELS 3 Zrotation Xrotation Yrotation
                      JOINT LeftHandIndex2
                      {
                        OFFSET 7.26759 -0.000290679 -0.000465086
                        CHANNELS 3 Zrotation Xrotation Yrotation
                        JOINT LeftHandIndex3
                        {
                          OFFSET 7.13628 -1.93787e-005 0.000232543
                          CHANNELS 3 Zrotation Xrotation Yrotation
                          JOINT LeftHandIndex4
                          {
                            OFFSET 5.46699 9.68932e-005 -0.000387571
                            CHANNELS 3 Zrotation Xrotation Yrotation
                            End Site
                            {
                              OFFSET 0 0 0
                            }
                          }
                        }
                      }
                    }
                    JOINT LeftHandMiddle1
                    {
                      OFFSET 24.4604 -2.52837 0.918567
                      CHANNELS 3 Zrotation Xrotation Yrotation
                      JOINT LeftHandMiddle2
                      {
                        OFFSET 7.41627 -5.81359e-005 0.000116271
                        CHANNELS 3 Zrotation Xrotation Yrotation
                        JOINT LeftHandMiddle3
                        {
                          OFFSET 8.76829 3.87573e-005 -7.75142e-005
                          CHANNELS 3 Zrotation Xrotation Yrotation
                          JOINT LeftHandMiddle4
                          {
                            OFFSET 6.07588 -0.00013565 -5.81356e-005
                            CHANNELS 3 Zrotation Xrotation Yrotation
                            End Site
                            {
                              OFFSET 0 0 0
                            }
                          }
                        }
                      }
                    }
                    JOINT LeftHandRing1
                    {
                      OFFSET 22.465 -1.97467 6.3466
                      CHANNELS 3 Zrotation Xrotation Yrotation
                      JOINT LeftHandRing2
                      {
                        OFFSET 7.36666 -0.000232544 0.000387571
                        CHANNELS 3 Zrotation Xrotation Yrotation
                        JOINT LeftHandRing3
                        {
                          OFFSET 8.07624 -0.000465087 -0.000203475
                          CHANNELS 3 Zrotation Xrotation Yrotation
                          JOINT LeftHandRing4
                          {
                            OFFSET 6.04433 0.00013565 3.87571e-005
                            CHANNELS 3 Zrotation Xrotation Yrotation
                            End Site
                            {
                              OFFSET 0 0 0
                            }
                          }
                        }
                      }
                    }
                    JOINT LeftHandPinky1
                    {
                      OFFSET 19.5278 0.352933 10.4295
                      CHANNELS 3 Zrotation Xrotation Yrotation
                      JOINT LeftHandPinky2
                      {
                        OFFSET 6.16525 5.8136e-005 -0.000251921
                        CHANNELS 3 Zrotation Xrotation Yrotation
                        JOINT LeftHandPinky3
                        {
                          OFFSET 6.14448 -0.000329434 -0.00510625
                          CHANNELS 3 Zrotation Xrotation Yrotation
                          JOINT LeftHandPinky4
                          {
                            OFFSET 4.98555 0.000116272 0.000116271
                            CHANNELS 3 Zrotation Xrotation Yrotation
                            End Site
                            {
                              OFFSET 0 0 0
                            }
                          }
                        }
                      }
                    }
                  }
                }
              }
            }
            JOINT RightShoulder
            {
              OFFSET 20.1309 -6.74152 -12.6063
              CHANNELS 3 Zrotation Xrotation Yrotation
              JOINT RightArm
              {
                OFFSET 34.2171 7.75146e-005 7.75146e-005
                CHANNELS 3 Zrotation Xrotation Yrotation
                JOINT RightForeArm
                {
                  OFFSET 65.4492 0.242543 -0.176501
                  CHANNELS 3 Zrotation Xrotation Yrotation
                  JOINT RightHand
                  {
                    OFFSET 67.3888 -0.0867388 0.0597442
                    CHANNELS 3 Zrotation Xrotation Yrotation
                    JOINT RightHandThumb1
                    {
                      OFFSET 8.78307 -2.85357 -6.05302
                      CHANNELS 3 Zrotation Xrotation Yrotation
                      JOINT RightHandThumb2
                      {
                        OFFSET 8.25493 -7.75145e-005 0
                        CHANNELS 3 Zrotation Xrotation Yrotation
                        JOINT RightHandThumb3
                        {
                          OFFSET 7.24797 -0.000174408 0.000155029
                          CHANNELS 3 Zrotation Xrotation Yrotation
                          JOINT RightHandThumb4
                          {
                            OFFSET 7.00062 0 0
                            CHANNELS 3 Zrotation Xrotation Yrotation
                            End Site
                            {
                              OFFSET 0 0 0
                            }
                          }
                        }
                      }
                    }
                    JOINT RightHandIndex1
                    {
                      OFFSET 24.0991 1.01525 -5.40578
                      CHANNELS 3 Zrotation Xrotation Yrotation
                      JOINT RightHandIndex2
                      {
                        OFFSET 7.26773 7.75144e-005 0.000232543
                        CHANNELS 3 Zrotation Xrotation Yrotation
                        JOINT RightHandIndex3
                        {
                          OFFSET 7.13572 -0.000310058 3.87571e-005
                          CHANNELS 3 Zrotation Xrotation Yrotation
                          JOINT RightHandIndex4
                          {
                            OFFSET 5.46717 0 3.87572e-005
                            CHANNELS 3 Zrotation Xrotation Yrotation
                            End Site
                            {
                              OFFSET 0 0 0
                            }
                          }
                        }
                      }
                    }
                    JOINT RightHandMiddle1
                    {
                      OFFSET 24.4603 2.52899 0.918547
                      CHANNELS 3 Zrotation Xrotation Yrotation
                      JOINT RightHandMiddle2
                      {
                        OFFSET 7.41641 -0.000116272 -0.000116272
                        CHANNELS 3 Zrotation Xrotation Yrotation
                        JOINT RightHandMiddle3
                        {
                          OFFSET 8.76765 -3.87577e-005 0.000232543
                          CHANNELS 3 Zrotation Xrotation Yrotation
                          JOINT RightHandMiddle4
                          {
                            OFFSET 6.07609 -0.000193787 -0.000116271
                            CHANNELS 3 Zrotation Xrotation Yrotation
                            End Site
                            {
                              OFFSET 0 0 0
                            }
                          }
                        }
                      }
                    }
                    JOINT RightHandRing1
                    {
                      OFFSET 22.465 1.97571 6.34696
                      CHANNELS 3 Zrotation Xrotation Yrotation
                      JOINT RightHandRing2
                      {
                        OFFSET 7.36684 0.000193786 0.000155029
                        CHANNELS 3 Zrotation Xrotation Yrotation
                        JOINT RightHandRing3
                        {
                          OFFSET 8.07614 -0.000271301 0
                          CHANNELS 3 Zrotation Xrotation Yrotation
                          JOINT RightHandRing4
                          {
                            OFFSET 6.04468 0.000232543 0
                            CHANNELS 3 Zrotation Xrotation Yrotation
                            End Site
                            {
                              OFFSET 0 0 0
                            }
                          }
                        }
                      }
                    }
                    JOINT RightHandPinky1
                    {
                      OFFSET 19.5277 -0.352346 10.4296
                      CHANNELS 3 Zrotation Xrotation Yrotation
                      JOINT RightHandPinky2
                      {
                        OFFSET 6.16508 0 0.000232543
                        CHANNELS 3 Zrotation Xrotation Yrotation
                        JOINT RightHandPinky3
                        {
                          OFFSET 6.14396 -0.000155048 -0.0048834
                          CHANNELS 3 Zrotation Xrotation Yrotation
                          JOINT RightHandPinky4
                          {
                            OFFSET 4.98577 -7.75146e-005 -7.75143e-005
                            CHANNELS 3 Zrotation Xrotation Yrotation
                            End Site
                            {
                              OFFSET 0 0 0
                            }
                          }
                        }
                      }
                    }
                  }
                }
              }
            }
          }
        }
      }
    }
  }
}
MOTION
Frames:	4
Frame Time:	0.0333333
0 0 0 -90 -7.01671e-015 -180 6.78256 -9.8494 -98.9824 -173.99 12.0822 -88.5388 -0.343944 -0.742361 -24.7844 4.8961 7.78665 46.5388 -0.571183 0.116047 56.7469 -3.07249e-006 -4.2554e-007 -86.4974 -171.851 -0.539999 -107.328 -0.218637 -0.478304 -19.1801 -4.45244 -3.32364 59.6568 0.584421 -0.118011 57.3637 0.000135708 -0.000115278 -86.4974 0.848322 -0.0457205 126.277 -2.71213 -3.62026 -5.19353 -4.7193 -4.51072 -7.35302 -3.51083 -0.803146 8.05648 6.87843 -26.991 16.292 -4.2217 -24.9757 43.1488 84.1577 23.6866 -17.0277 78.6201 33.667 7.75243 -5.493 36.1164 22.3743 9.9488 2.76563 -7.84072 -156.125 -1.29693 169.676 0.000374749 -7.96509e-005 10.4459 0.000254336 7.16268e-006 11.9407 0.000852068 0.0011281 -7.21521e-005 113.494 82.167 -89.9422 -0.000405233 -0.000363301 7.0502 0.00112034 -0.000752457 9.47906 -0.000604688 -0.000597699 -0.000467872 8.24071 89.9997 23.1218 7.94858e-005 -0.00034223 14.8575 -0.000530885 -0.000999023 14.8539 -0.000548976 -0.000339031 0.000144285 -55.071 87.2317 90.2253 0.000179986 -0.000926487 18.6506 -0.00152328 -0.0012964 18.6457 -0.000614712 -0.000706074 0.000732107 -55.008 84.2109 90.1573 0.00114269 -0.00115482 18.6517 0.000104753 -0.000162052 18.6508 -4.33161e-005 -5.94798e-005 -0.000382704 -88.3418 -22.5131 -25.5397 -77.4273 -31.945 5.61064 6.43212 -37.5862 18.5045 2.05759 -10.8258 7.52949 156.125 1.29657 169.677 -0.000100077 -1.89813e-005 10.4461 0.000167056 9.49585e-005 11.9495 -0.000473024 -0.00227356 180 -113.493 -82.167 -89.9985 -0.000165407 -0.000144117 6.99061 0.000155118 -1.19805e-005 9.41521 -0.000106812 -7.62939e-005 180 -19.7343 -89.9996 11.6271 -2.47615e-005 2.69387e-005 14.8567 -1.68288e-005 0.000191469 14.8555 1.52588e-005 -3.05175e-005 -180 55.0692 -87.2317 90.222 5.1834e-005 -8.35647e-005 18.6502 -4.25886e-005 0.000251095 18.6499 3.05176e-005 -6.10351e-005 -180 55.0071 -84.2103 90.16 -4.80227e-005 0.000272648 18.6474 0.0036011 0.00131146 18.6632 -3.05176e-005 -6.10351e-005 180 
0 0 0 -90 -7.01671e-015 -180 6.79764 -9.83629 -98.9683 -173.988 12.1019 -88.5427 -0.341346 -0.73676 -24.7734 4.89831 7.78698 46.5501 -0.571106 0.116191 56.7273 -3.12008e-006 -2.00885e-005 -86.4974 -171.864 -0.504402 -107.3 -0.217997 -0.475136 -19.2119 -4.44543 -3.2971 59.6733 0.584399 -0.118036 57.3611 0.000135722 -0.000173033 -86.4974 0.849999 -0.0461768 126.282 -2.7297 -3.63069 -5.16169 -4.74133 -4.52654 -7.32427 -3.52253 -0.821141 8.08506 6.72894 -27.156 16.1887 -4.28877 -25.0924 43.1409 84.1597 23.6871 -17.0261 78.6177 33.6597 7.73431 -5.49917 36.1299 22.3844 9.94236 2.62143 -7.88726 -156.125 -1.29702 169.676 0.000374845 -0.000138195 10.4459 0.000254685 7.24501e-006 11.9407 0.000852069 0.00109156 -7.21516e-005 113.494 82.167 -89.9389 -0.000406466 -0.000363321 7.05311 0.00111948 -0.00075162 9.48214 -0.000604688 -0.000667813 -0.000467872 7.92779 89.9997 23.4419 8.38884e-005 -0.00034254 14.8648 -0.000834182 -0.00108131 14.8609 -0.000548976 -0.00036811 0.000144285 -55.0753 87.2319 90.2367 0.000180421 -0.000927914 18.6576 -0.00228232 -0.00155131 18.6516 -0.000614714 -0.000706074 0.000732107 -55.0086 84.2109 90.166 0.00114478 -0.00115745 18.6589 0.000107335 -0.000163229 18.6577 -4.33161e-005 -6.58689e-005 -0.000382704 -88.3424 -22.5121 -25.5462 -77.4278 -31.946 5.61393 6.44056 -37.5821 18.5027 2.0612 -10.8213 7.51999 156.125 1.29662 169.676 -0.000101834 9.88636e-005 10.4461 0.000167073 8.73372e-005 11.9495 -0.000473024 -0.00238037 180 -113.493 -82.167 -89.9987 -0.000164365 -0.000144039 6.99038 0.0001546 6.17479e-005 9.41536 -0.000106812 -7.62939e-005 180 -20.0365 -89.9996 11.3317 -2.49936e-005 2.77632e-005 14.8638 -1.62733e-005 0.000189188 14.8628 1.52588e-005 -9.15526e-005 -180 55.0733 -87.2319 90.2329 5.44139e-005 -8.06075e-005 18.6566 -3.59278e-005 0.000253079 18.6565 3.05176e-005 -6.10351e-005 -180 55.0077 -84.2103 90.1676 -4.624e-005 0.000272726 18.6547 0.00322975 0.00118638 18.665 -3.05176e-005 -7.62938e-005 180 
0 0 0 -90 -7.01671e-015 -180 6.80441 -9.82547 -98.9595 -173.987 12.1143 -88.5412 -0.340132 -0.733684 -24.7753 4.90175 7.79017 46.5638 -0.571029 0.11633 56.7077 -3.11548e-006 -6.08668e-005 -86.4974 -171.881 -0.477968 -107.295 -0.217173 -0.472255 -19.2204 -4.44365 -3.26945 59.6848 0.584379 -0.118057 57.3585 0.000133608 -5.77144e-005 -86.4974 0.85055 -0.0463169 126.286 -2.74071 -3.63322 -5.15108 -4.75596 -4.53246 -7.31634 -3.53187 -0.826925 8.09338 6.59523 -27.3294 16.1142 -4.3724 -25.2209 43.1415 84.1626 23.6877 -17.0241 78.6145 33.6528 7.71978 -5.50383 36.1409 22.3919 9.9366 2.50315 -7.92169 -156.125 -1.29713 169.676 0.00037306 -1.97219e-005 10.4459 0.000254759 7.25955e-006 11.9407 0.000852068 0.00101939 -7.21504e-005 113.494 82.167 -89.9357 -0.00040633 -0.000365928 7.05602 0.00111973 -0.000751517 9.48522 -0.000604474 -0.000527628 -0.000467444 8.51138 89.9997 22.8654 8.28373e-005 -0.000343026 14.8721 -0.00113635 -0.001164 14.868 -0.000548976 -0.000427162 0.000144284 -55.0791 87.232 90.2476 0.000179414 -0.000926564 18.6647 -0.00304129 -0.00181015 18.6574 -0.000614713 -0.000708488 0.000732106 -55.009 84.211 90.1747 0.00114505 -0.0011556 18.666 0.00010647 -0.000165164 18.6646 -4.33162e-005 -7.95293e-005 -0.000382704 -88.343 -22.5112 -25.5527 -77.4278 -31.9461 5.61497 6.44899 -37.578 18.5009 2.06586 -10.8192 7.51157 156.125 1.29665 169.676 -0.000101625 9.89031e-005 10.4461 0.000167042 7.22541e-005 11.9495 -0.000473023 -0.002182 180 -113.493 -82.167 -89.9988 -0.000167556 -0.000144123 6.99015 0.000154276 -6.65843e-006 9.41535 -0.000106812 -7.62939e-005 180 -19.4804 -89.9996 11.8947 -2.27806e-005 2.88915e-005 14.8709 -1.77418e-005 0.000189863 14.8701 1.52588e-005 3.05175e-005 -180 55.0772 -87.232 90.2436 3.86979e-005 -8.39954e-005 18.6631 -3.5093e-005 0.000253225 18.6631 3.05176e-005 -6.10351e-005 -180 55.0082 -84.2103 90.175 -4.62117e-005 0.000274468 18.662 0.00285796 0.00106115 18.6668 -3.05176e-005 -0.00012207 180 
0 0 0 -90 -7.01671e-015 -180 6.80499 -9.81573 -98.9524 -173.988 12.1218 -88.5364 -0.338918 -0.730606 -24.7772 4.90518 7.79336 46.5774 -0.570952 0.116475 56.6881 -3.11044e-006 -0.000142139 -86.4974 -171.901 -0.45762 -107.3 -0.216245 -0.469504 -19.2159 -4.44188 -3.2418 59.6963 0.584359 -0.118083 57.3559 0.000133619 -5.77081e-005 -86.4974 0.850548 -0.0462585 126.29 -2.74679 -3.63173 -5.15135 -4.76516 -4.5334 -7.31929 -3.53869 -0.826152 8.09079 6.47011 -27.5025 16.0504 -4.47916 -25.3504 43.1374 84.1663 23.6884 -17.0217 78.61 33.6462 7.71051 -5.50678 36.1484 22.3966 9.93246 2.42314 -7.94307 -156.125 -1.29722 169.676 0.000372914 -1.97558e-005 10.4459 0.000254366 7.17271e-006 11.9407 0.000853774 0.00116453 -7.1299e-005 113.494 82.167 -89.9323 -0.000404975 -0.000365823 7.05894 0.00112014 -0.000750637 9.48831 -0.000604474 -0.000527628 -0.000467444 7.6338 89.9997 23.7501 8.25373e-005 -0.00034211 14.8794 -0.00143928 -0.00124687 14.875 -0.000548976 -0.00030565 0.000144072 -55.083 87.2321 90.2585 0.000179923 -0.000926965 18.6717 -0.00379939 -0.00206869 18.6633 -0.000614712 -0.000713318 0.000732107 -55.0098 84.211 90.1836 0.00114772 -0.00115408 18.6733 0.000107395 -0.000164126 18.6715 -4.33164e-005 -0.000106202 -0.000382704 -88.3435 -22.5103 -25.5593 -77.4279 -31.9463 5.61601 6.45437 -37.5764 18.498 2.07301 -10.8186 7.50608 156.125 1.29668 169.676 -0.000102699 9.87057e-005 10.4461 0.00016767 4.36114e-005 11.9495 -0.000473023 -0.002182 180 -113.493 -82.167 -89.9989 -0.000166559 -0.000143621 6.98993 0.000158262 6.04919e-005 9.4155 -0.000106812 -9.15526e-005 180 -20.0503 -89.9996 11.3316 -3.33928e-005 2.73847e-005 14.878 -1.48314e-005 0.000187293 14.8775 1.52588e-005 3.05175e-005 -180 55.0812 -87.2321 90.2544 3.98699e-005 -8.32658e-005 18.6696 -3.19992e-005 0.000256833 18.6697 3.05176e-005 -6.10351e-005 -180 55.0086 -84.2103 90.1824 -4.24407e-005 0.000275467 18.6692 0.00248346 0.000935503 18.6686 -3.05176e-005 -0.000213623 180 
